<?xml version="1.0" encoding="UTF-8" standalone="no"?>
<!-- Created with Inkscape (http://www.inkscape.org/) -->

<svg
   width="400"
   height="340"
   viewBox="0 0 105.83333 89.958331"
   version="1.1"
   id="svg5"
   xmlns="http://www.w3.org/2000/svg"
   xmlns:svg="http://www.w3.org/2000/svg">
  <defs
     id="defs2" />
  <g
     id="layer4"
     transform="matrix(0.49970634,0,0,0.49970634,0.01785285,-15.867551)">
    <path
       style="display:inline;fill:none;stroke:#000000;stroke-width:2;stroke-linecap:round;stroke-linejoin:round;stroke-miterlimit:4;stroke-dasharray:none;stroke-opacity:1"
       d="m 63.204368,197.11457 v -22.43629 l 2.243629,-2.24363"
       id="path1036-36" />
    <path
       style="display:inline;fill:none;stroke:#000000;stroke-width:2;stroke-linecap:round;stroke-linejoin:round;stroke-miterlimit:4;stroke-dasharray:none;stroke-opacity:1"
       d="M 65.447997,172.43465 V 114.1003"
       id="path1038-7" />
    <path
       style="display:inline;fill:none;stroke:#000000;stroke-width:2;stroke-linecap:round;stroke-linejoin:round;stroke-miterlimit:4;stroke-dasharray:none;stroke-opacity:1"
       d="M 148.46228,197.11457 V 185.89642"
       id="path1040-5" />
    <path
       style="display:inline;fill:none;stroke:#000000;stroke-width:2;stroke-linecap:round;stroke-linejoin:round;stroke-miterlimit:4;stroke-dasharray:none;stroke-opacity:1"
       d="M 146.21865,174.67828 V 123.0748"
       id="path1042-3" />
    <path
       style="display:inline;fill:none;stroke:#000000;stroke-width:2;stroke-linecap:round;stroke-linejoin:round;stroke-miterlimit:4;stroke-dasharray:none;stroke-opacity:1"
       d="M 67.691627,111.85667 V 80.445863"
       id="path1239-5" />
    <path
       style="display:inline;fill:none;stroke:#000000;stroke-width:2;stroke-linecap:round;stroke-linejoin:round;stroke-miterlimit:4;stroke-dasharray:none;stroke-opacity:1"
       d="M 96.858804,111.85667 V 89.420379"
       id="path1241-6" />
    <path
       style="display:inline;fill:none;stroke:#000000;stroke-width:2;stroke-linecap:round;stroke-linejoin:round;stroke-miterlimit:4;stroke-dasharray:none;stroke-opacity:1"
       d="M 114.80784,111.85667 V 80.445863"
       id="path1243-2" />
    <path
       style="display:inline;fill:none;stroke:#000000;stroke-width:2;stroke-linecap:round;stroke-linejoin:round;stroke-miterlimit:4;stroke-dasharray:none;stroke-opacity:1"
       d="M 143.97502,89.420379 V 111.85667"
       id="path1245-9" />
    <path
       style="display:inline;fill:none;stroke:#000000;stroke-width:2;stroke-linecap:round;stroke-linejoin:round;stroke-miterlimit:4;stroke-dasharray:none;stroke-opacity:1"
       d="M 67.691627,80.445863 H 92.371546"
       id="path1247-1" />
    <path
       style="display:inline;fill:none;stroke:#000000;stroke-width:2;stroke-linecap:round;stroke-linejoin:round;stroke-miterlimit:4;stroke-dasharray:none;stroke-opacity:1"
       d="m 114.80784,80.445863 h 24.67992"
       id="path1249-2" />
    <path
       style="display:inline;fill:none;stroke:#000000;stroke-width:2;stroke-linecap:round;stroke-linejoin:round;stroke-miterlimit:4;stroke-dasharray:none;stroke-opacity:1"
       d="M 96.858804,111.85667 H 114.80784"
       id="path1251-7" />
    <path
       style="display:inline;fill:none;stroke:#000000;stroke-width:2;stroke-linecap:round;stroke-linejoin:round;stroke-miterlimit:4;stroke-dasharray:none;stroke-opacity:1;paint-order:stroke fill markers"
       id="path1405-0"
       transform="scale(-1,1)"
       d="m -101.17758,154.69689 a 9.3114843,9.3114843 0 0 1 -11.65649,-1.9245 9.3114843,9.3114843 0 0 1 -0.38655,-11.80796 9.3114843,9.3114843 0 0 1 11.50566,-2.68274 9.3114843,9.3114843 0 0 1 4.875843,10.7612" />
    <path
       style="display:inline;fill:none;stroke:#000000;stroke-width:2;stroke-linecap:round;stroke-linejoin:round;stroke-miterlimit:4;stroke-dasharray:none;stroke-opacity:1;paint-order:stroke fill markers"
       id="path1405-2-9"
       transform="scale(-1,1)"
       d="m -103.58969,150.51898 a 4.487258,4.487258 0 0 1 -5.61733,-0.92742 4.487258,4.487258 0 0 1 -0.18628,-5.69033 4.487258,4.487258 0 0 1 5.54464,-1.29283 4.487258,4.487258 0 0 1 2.3497,5.18589" />
    <path
       style="display:inline;fill:none;stroke:#000000;stroke-width:2;stroke-linecap:round;stroke-linejoin:round;stroke-miterlimit:4;stroke-dasharray:none;stroke-opacity:1"
       d="m 91.249626,155.60743 v -8.97451 c 0,-6.73089 -5.609073,-10.09633 -8.974516,-11.21815 -3.365444,1.12182 -8.974516,4.48726 -8.974516,11.21815 v 3.36544"
       id="path1520-3" />
    <path
       style="display:inline;fill:none;stroke:#000000;stroke-width:2;stroke-linecap:round;stroke-linejoin:round;stroke-miterlimit:4;stroke-dasharray:none;stroke-opacity:1"
       d="m 76.666145,155.60744 h 4.487258 v -6.73089 c 0,-2.24362 0,-3.36544 -2.243629,-4.48725 -2.243629,1.12181 -2.243629,2.24363 -2.243629,4.48725 v 1.12182"
       id="path1520-3-6" />
    <path
       style="display:inline;fill:none;stroke:#000000;stroke-width:2;stroke-linecap:round;stroke-linejoin:round;stroke-miterlimit:4;stroke-dasharray:none;stroke-opacity:1"
       d="m 83.397032,155.60744 h 4.487258 v -6.73089 c 0,-2.24362 0,-3.36544 -2.243629,-4.48725 -2.243629,1.12181 -2.243629,2.24363 -2.243629,4.48725 v 1.12182"
       id="path1520-3-6-1" />
    <path
       style="display:inline;fill:none;stroke:#000000;stroke-width:2;stroke-linecap:round;stroke-linejoin:round;stroke-miterlimit:4;stroke-dasharray:none;stroke-opacity:1"
       d="m 123.78235,155.60744 h 4.48726 v -6.73089 c 0,-2.24362 0,-3.36544 -2.24363,-4.48725 -2.24363,1.12181 -2.24363,2.24363 -2.24363,4.48725 v 1.12182"
       id="path1520-3-6-0" />
    <path
       style="display:inline;fill:none;stroke:#000000;stroke-width:2;stroke-linecap:round;stroke-linejoin:round;stroke-miterlimit:4;stroke-dasharray:none;stroke-opacity:1"
       d="m 130.51324,155.60744 h 4.48726 v -6.73089 c 0,-2.24362 0,-3.36544 -2.24363,-4.48725 -2.24363,1.12181 -2.24363,2.24363 -2.24363,4.48725 v 1.12182"
       id="path1520-3-6-1-6" />
    <path
       style="display:inline;fill:none;stroke:#000000;stroke-width:2;stroke-linecap:round;stroke-linejoin:round;stroke-miterlimit:4;stroke-dasharray:none;stroke-opacity:1"
       d="m 138.36584,155.60743 v -8.97451 c 0,-6.73089 -5.60908,-10.09633 -8.97452,-11.21815 -3.36544,1.12182 -8.97451,4.48726 -8.97451,11.21815 v 3.36544"
       id="path1520-37-6" />
    <path
       style="display:inline;fill:none;stroke:#000000;stroke-width:2;stroke-linecap:round;stroke-linejoin:round;stroke-miterlimit:4;stroke-dasharray:none;stroke-opacity:1"
       d="m 72.178884,193.74913 v -12.33997 c 0,-5.60907 5.609072,-10.09633 8.974516,-11.21814 3.365444,1.12181 8.974516,5.60907 8.974516,11.21814 v 15.70541"
       id="path1520-6-0" />
    <path
       style="display:inline;fill:none;stroke:#000000;stroke-width:2;stroke-linecap:round;stroke-linejoin:round;stroke-miterlimit:4;stroke-dasharray:none;stroke-opacity:1"
       d="m 76.666142,194.87094 v -10.09633 c 0,-4.48726 1.121814,-7.8527 4.487258,-10.09633 3.365444,2.24363 4.487258,5.60907 4.487258,10.09633 v 12.33996"
       id="path1520-6-2-6" />
    <path
       style="display:inline;fill:none;stroke:#000000;stroke-width:2;stroke-linecap:round;stroke-linejoin:round;stroke-miterlimit:4;stroke-dasharray:none;stroke-opacity:1"
       d="m 121.53873,193.74913 v -12.33997 c 0,-5.60907 5.60907,-10.09633 8.97451,-11.21814 3.36544,1.12181 8.97451,5.60907 8.97451,11.21814 v 15.70541"
       id="path1520-6-9-2" />
    <path
       style="display:inline;fill:none;stroke:#000000;stroke-width:2;stroke-linecap:round;stroke-linejoin:round;stroke-miterlimit:4;stroke-dasharray:none;stroke-opacity:1"
       d="m 126.02598,194.87094 v -10.09633 c 0,-4.48726 1.12182,-7.8527 4.48726,-10.09633 3.36544,2.24363 4.48726,5.60907 4.48726,10.09633 v 12.33996"
       id="path1520-6-2-2-6" />
    <path
       style="display:inline;fill:none;stroke:#000000;stroke-width:2;stroke-linecap:round;stroke-linejoin:round;stroke-miterlimit:4;stroke-dasharray:none;stroke-opacity:1"
       d="m 101.34607,194.87094 v -10.09633 c 0,-4.48726 1.12181,-7.8527 4.48726,-10.09633 3.36544,2.24363 4.48726,5.60907 4.48726,10.09633 v 12.33996"
       id="path1520-6-2-5-1" />
    <path
       style="display:inline;fill:none;stroke:#000000;stroke-width:2;stroke-linecap:round;stroke-linejoin:round;stroke-miterlimit:4;stroke-dasharray:none;stroke-opacity:1"
       d="m 95.736989,193.74913 v -12.33997 c 0,-5.60906 5.609071,-12.33995 10.096341,-13.46176 4.48725,1.12181 10.09633,6.73088 10.09633,12.33995 v 16.82722"
       id="path1520-6-5-3-8" />
    <path
       style="display:inline;fill:none;stroke:#000000;stroke-width:2;stroke-linecap:round;stroke-linejoin:round;stroke-miterlimit:4;stroke-dasharray:none;stroke-opacity:1"
       d="M 101.34606,105.12578 V 89.420379"
       id="path7108-7" />
    <path
       style="display:inline;fill:none;stroke:#000000;stroke-width:2;stroke-linecap:round;stroke-linejoin:round;stroke-miterlimit:4;stroke-dasharray:none;stroke-opacity:1"
       d="M 110.32059,98.394895 V 89.420379"
       id="path7110-9" />
    <path
       style="display:inline;fill:none;stroke:#000000;stroke-width:2;stroke-linecap:round;stroke-linejoin:round;stroke-miterlimit:4;stroke-dasharray:none;stroke-opacity:1"
       d="m 101.34606,89.420379 4.48727,-42.628951"
       id="path7112-2" />
    <path
       style="display:inline;fill:none;stroke:#000000;stroke-width:2;stroke-linecap:round;stroke-linejoin:round;stroke-miterlimit:4;stroke-dasharray:none;stroke-opacity:1"
       d="M 105.83333,46.791428 V 40.060542"
       id="path7114-0" />
    <path
       style="display:inline;fill:none;stroke:#000000;stroke-width:2;stroke-linecap:round;stroke-linejoin:round;stroke-miterlimit:4;stroke-dasharray:none;stroke-opacity:1"
       d="m 65.447997,114.1003 2.243629,-2.24363"
       id="path7507-2" />
    <path
       style="display:inline;fill:none;stroke:#000000;stroke-width:2;stroke-linecap:round;stroke-linejoin:round;stroke-miterlimit:4;stroke-dasharray:none;stroke-opacity:1"
       d="M 75.544328,107.36941 V 91.664009 c 0,-4.003242 3.365444,-4.023852 3.365444,0 v 20.192661"
       id="path9061-3" />
    <path
       style="display:inline;fill:none;stroke:#000000;stroke-width:2;stroke-linecap:round;stroke-linejoin:round;stroke-miterlimit:4;stroke-dasharray:none;stroke-opacity:1"
       d="M 85.640553,107.36941 V 91.664009 c 0,-4.003242 3.365444,-4.023852 3.365444,0 v 20.192661"
       id="path9061-7-7" />
    <path
       style="display:inline;fill:none;stroke:#000000;stroke-width:2;stroke-linecap:round;stroke-linejoin:round;stroke-miterlimit:4;stroke-dasharray:none;stroke-opacity:1"
       d="M 122.66043,107.36941 V 91.664009 c 0,-4.003242 3.36545,-4.023852 3.36545,0 v 20.192661"
       id="path9061-9-5" />
    <path
       style="display:inline;fill:none;stroke:#000000;stroke-width:2;stroke-linecap:round;stroke-linejoin:round;stroke-miterlimit:4;stroke-dasharray:none;stroke-opacity:1"
       d="M 132.75676,107.36941 V 91.664009 c 0,-4.003242 3.36545,-4.023852 3.36545,0 v 20.192661"
       id="path9061-7-2-9" />
    <path
       style="display:inline;fill:none;stroke:#000000;stroke-width:2;stroke-linecap:round;stroke-linejoin:round;stroke-miterlimit:4;stroke-dasharray:none;stroke-opacity:1"
       d="m 92.371546,117.46574 v 14.58359"
       id="path9516-2" />
    <path
       style="display:inline;fill:none;stroke:#000000;stroke-width:2;stroke-linecap:round;stroke-linejoin:round;stroke-miterlimit:4;stroke-dasharray:none;stroke-opacity:1"
       d="m 71.057071,117.46574 v 14.58359"
       id="path9516-0-28" />
    <path
       style="display:inline;fill:none;stroke:#000000;stroke-width:2;stroke-linecap:round;stroke-linejoin:round;stroke-miterlimit:4;stroke-dasharray:none;stroke-opacity:1"
       d="m 118.17328,117.46574 v 14.58359"
       id="path9518-9" />
    <path
       style="display:inline;fill:none;stroke:#000000;stroke-width:2;stroke-linecap:round;stroke-linejoin:round;stroke-miterlimit:4;stroke-dasharray:none;stroke-opacity:1"
       d="m 139.48776,117.46574 v 14.58359"
       id="path9520-7" />
    <path
       style="display:inline;fill:none;stroke:#000000;stroke-width:2;stroke-linecap:round;stroke-linejoin:round;stroke-miterlimit:4;stroke-dasharray:none;stroke-opacity:1"
       d="m 110.32059,89.420379 -1.61187,-15.31276"
       id="path9958-3" />
    <path
       style="display:inline;fill:none;stroke:#000000;stroke-width:2;stroke-linecap:round;stroke-linejoin:round;stroke-miterlimit:4;stroke-dasharray:none;stroke-opacity:1"
       d="M 129.39143,73.714977 V 62.496831"
       id="path7118-9-61" />
    <path
       style="display:inline;fill:none;stroke:#000000;stroke-width:2;stroke-linecap:round;stroke-linejoin:round;stroke-miterlimit:4;stroke-dasharray:none;stroke-opacity:1"
       d="m 129.39143,73.714977 -5.60907,4.487257"
       id="path10127-1-29" />
    <path
       style="display:inline;fill:none;stroke:#000000;stroke-width:2;stroke-linecap:round;stroke-linejoin:round;stroke-miterlimit:4;stroke-dasharray:none;stroke-opacity:1"
       d="M 82.275107,73.714977 V 62.496831"
       id="path7118-9-6-3" />
    <path
       style="display:inline;fill:none;stroke:#000000;stroke-width:2;stroke-linecap:round;stroke-linejoin:round;stroke-miterlimit:4;stroke-dasharray:none;stroke-opacity:1"
       d="m 82.275107,73.714977 -5.60907,4.487257"
       id="path10127-1-2-19" />
    <path
       style="display:inline;fill:none;stroke:#000000;stroke-width:2;stroke-linecap:round;stroke-linejoin:round;stroke-miterlimit:4;stroke-dasharray:none;stroke-opacity:1"
       d="M 73.300702,158.97288 H 91.249734"
       id="path9516-0-28-4" />
    <path
       style="display:inline;fill:none;stroke:#000000;stroke-width:2;stroke-linecap:round;stroke-linejoin:round;stroke-miterlimit:4;stroke-dasharray:none;stroke-opacity:1"
       d="M 73.300702,84.933121 H 91.249734"
       id="path9516-0-28-4-6" />
    <path
       style="display:inline;fill:none;stroke:#000000;stroke-width:2;stroke-linecap:round;stroke-linejoin:round;stroke-miterlimit:4;stroke-dasharray:none;stroke-opacity:1"
       d="m 120.41691,84.933121 h 17.94903"
       id="path9516-0-28-4-6-1" />
    <path
       style="display:inline;fill:none;stroke:#000000;stroke-width:2;stroke-linecap:round;stroke-linejoin:round;stroke-miterlimit:4;stroke-dasharray:none;stroke-opacity:1"
       d="M 73.300702,166.82559 H 91.249734"
       id="path9516-0-28-4-7" />
    <path
       style="display:inline;fill:none;stroke:#000000;stroke-width:2;stroke-linecap:round;stroke-linejoin:round;stroke-miterlimit:4;stroke-dasharray:none;stroke-opacity:1"
       d="m 120.41691,166.82559 h 17.94903"
       id="path9516-0-28-4-8" />
    <path
       style="display:inline;fill:none;stroke:#000000;stroke-width:2;stroke-linecap:round;stroke-linejoin:round;stroke-miterlimit:4;stroke-dasharray:none;stroke-opacity:1"
       d="m 120.41691,158.97288 h 17.94903"
       id="path9516-0-28-4-3" />
    <path
       style="display:inline;fill:none;stroke:#000000;stroke-width:2;stroke-linecap:round;stroke-linejoin:round;stroke-miterlimit:4;stroke-dasharray:none;stroke-opacity:1"
       d="M 94.615177,158.97288 H 117.05146"
       id="path9516-0-28-4-3-0" />
    <path
       style="display:inline;fill:none;stroke:#000000;stroke-width:2;stroke-linecap:round;stroke-linejoin:round;stroke-miterlimit:4;stroke-dasharray:none;stroke-opacity:1"
       d="m 89.006105,130.92752 v -6.73089 c 0,-2.24363 -0.0084,-4.96624 -1.121815,-5.60908"
       id="path1520-3-6-4" />
    <path
       style="display:inline;fill:none;stroke:#000000;stroke-width:2;stroke-linecap:round;stroke-linejoin:round;stroke-miterlimit:4;stroke-dasharray:none;stroke-opacity:1"
       d="m 85.266771,130.92752 v -6.73089 c 0,-2.24363 -0.0084,-4.96624 -1.121815,-5.60908"
       id="path1520-3-6-4-6" />
    <path
       style="display:inline;fill:none;stroke:#000000;stroke-width:2;stroke-linecap:round;stroke-linejoin:round;stroke-miterlimit:4;stroke-dasharray:none;stroke-opacity:1"
       d="m 81.52764,130.92752 v -6.73089 c 0,-2.24363 -0.0084,-4.96624 -1.121815,-5.60908"
       id="path1520-3-6-4-9" />
    <path
       style="display:inline;fill:none;stroke:#000000;stroke-width:2;stroke-linecap:round;stroke-linejoin:round;stroke-miterlimit:4;stroke-dasharray:none;stroke-opacity:1"
       d="m 77.788306,130.92752 v -6.73089 c 0,-2.24363 -0.0084,-4.96624 -1.121815,-5.60908"
       id="path1520-3-6-4-6-0" />
    <path
       style="display:inline;fill:none;stroke:#000000;stroke-width:2;stroke-linecap:round;stroke-linejoin:round;stroke-miterlimit:4;stroke-dasharray:none;stroke-opacity:1"
       d="m 76.063833,119.32142 c 0.151979,-0.33254 0.348416,-0.58728 0.602312,-0.73387"
       id="path1520-3-6-4-6-0-0" />
    <path
       style="display:inline;fill:none;stroke:#000000;stroke-width:2;stroke-linecap:round;stroke-linejoin:round;stroke-miterlimit:4;stroke-dasharray:none;stroke-opacity:1"
       d="m 79.803513,119.32142 c 0.151979,-0.33254 0.348416,-0.58728 0.602312,-0.73387"
       id="path1520-3-6-4-6-0-0-6" />
    <path
       style="display:inline;fill:none;stroke:#000000;stroke-width:2;stroke-linecap:round;stroke-linejoin:round;stroke-miterlimit:4;stroke-dasharray:none;stroke-opacity:1"
       d="m 83.542297,119.32142 c 0.15198,-0.33254 0.348417,-0.58728 0.602313,-0.73387"
       id="path1520-3-6-4-6-0-0-1" />
    <path
       style="display:inline;fill:none;stroke:#000000;stroke-width:2;stroke-linecap:round;stroke-linejoin:round;stroke-miterlimit:4;stroke-dasharray:none;stroke-opacity:1"
       d="m 87.281977,119.32142 c 0.15198,-0.33254 0.348417,-0.58728 0.602313,-0.73387"
       id="path1520-3-6-4-6-0-0-6-5" />
    <path
       style="display:inline;fill:none;stroke:#000000;stroke-width:2;stroke-linecap:round;stroke-linejoin:round;stroke-miterlimit:4;stroke-dasharray:none;stroke-opacity:1"
       d="m 99.621936,119.32142 c 0.151979,-0.33254 0.348416,-0.58728 0.602314,-0.73387"
       id="path1520-3-6-4-6-0-0-9" />
    <path
       style="display:inline;fill:none;stroke:#000000;stroke-width:2;stroke-linecap:round;stroke-linejoin:round;stroke-miterlimit:4;stroke-dasharray:none;stroke-opacity:1"
       d="m 103.36162,119.32142 c 0.15198,-0.33254 0.34842,-0.58728 0.60231,-0.73387"
       id="path1520-3-6-4-6-0-0-6-0" />
    <path
       style="display:inline;fill:none;stroke:#000000;stroke-width:2;stroke-linecap:round;stroke-linejoin:round;stroke-miterlimit:4;stroke-dasharray:none;stroke-opacity:1"
       d="m 107.1004,119.32142 c 0.15198,-0.33254 0.34841,-0.58728 0.60231,-0.73387"
       id="path1520-3-6-4-6-0-0-1-9" />
    <path
       style="display:inline;fill:none;stroke:#000000;stroke-width:2;stroke-linecap:round;stroke-linejoin:round;stroke-miterlimit:4;stroke-dasharray:none;stroke-opacity:1"
       d="m 110.84008,119.32142 c 0.15198,-0.33254 0.34842,-0.58728 0.60231,-0.73387"
       id="path1520-3-6-4-6-0-0-6-5-1" />
    <path
       style="display:inline;fill:none;stroke:#000000;stroke-width:2;stroke-linecap:round;stroke-linejoin:round;stroke-miterlimit:4;stroke-dasharray:none;stroke-opacity:1"
       d="m 123.18004,119.32142 c 0.15198,-0.33254 0.34842,-0.58728 0.60231,-0.73387"
       id="path1520-3-6-4-6-0-0-7" />
    <path
       style="display:inline;fill:none;stroke:#000000;stroke-width:2;stroke-linecap:round;stroke-linejoin:round;stroke-miterlimit:4;stroke-dasharray:none;stroke-opacity:1"
       d="m 126.91972,119.32142 c 0.15198,-0.33254 0.34841,-0.58728 0.60231,-0.73387"
       id="path1520-3-6-4-6-0-0-6-7" />
    <path
       style="display:inline;fill:none;stroke:#000000;stroke-width:2;stroke-linecap:round;stroke-linejoin:round;stroke-miterlimit:4;stroke-dasharray:none;stroke-opacity:1"
       d="m 130.65851,119.32142 c 0.15197,-0.33254 0.34841,-0.58728 0.60231,-0.73387"
       id="path1520-3-6-4-6-0-0-1-1" />
    <path
       style="display:inline;fill:none;stroke:#000000;stroke-width:2;stroke-linecap:round;stroke-linejoin:round;stroke-miterlimit:4;stroke-dasharray:none;stroke-opacity:1"
       d="m 134.39818,119.32142 c 0.15199,-0.33254 0.34843,-0.58728 0.60232,-0.73387"
       id="path1520-3-6-4-6-0-0-6-5-15" />
    <path
       style="display:inline;fill:none;stroke:#000000;stroke-width:2;stroke-linecap:round;stroke-linejoin:round;stroke-miterlimit:4;stroke-dasharray:none;stroke-opacity:1"
       d="m 112.56421,130.92752 v -6.73089 c 0,-2.24363 -0.008,-4.96624 -1.12182,-5.60908"
       id="path1520-3-6-4-8" />
    <path
       style="display:inline;fill:none;stroke:#000000;stroke-width:2;stroke-linecap:round;stroke-linejoin:round;stroke-miterlimit:4;stroke-dasharray:none;stroke-opacity:1"
       d="m 108.82487,130.92752 v -6.73089 c 0,-2.24363 -0.008,-4.96624 -1.1218,-5.60908"
       id="path1520-3-6-4-6-7" />
    <path
       style="display:inline;fill:none;stroke:#000000;stroke-width:2;stroke-linecap:round;stroke-linejoin:round;stroke-miterlimit:4;stroke-dasharray:none;stroke-opacity:1"
       d="m 105.08575,130.92752 v -6.73089 c 0,-2.24363 -0.008,-4.96624 -1.12182,-5.60908"
       id="path1520-3-6-4-9-1" />
    <path
       style="display:inline;fill:none;stroke:#000000;stroke-width:2;stroke-linecap:round;stroke-linejoin:round;stroke-miterlimit:4;stroke-dasharray:none;stroke-opacity:1"
       d="m 101.34641,130.92752 v -6.73089 c 0,-2.24363 -0.008,-4.96624 -1.12182,-5.60908"
       id="path1520-3-6-4-6-0-7" />
    <path
       style="display:inline;fill:none;stroke:#000000;stroke-width:2;stroke-linecap:round;stroke-linejoin:round;stroke-miterlimit:4;stroke-dasharray:none;stroke-opacity:1"
       d="m 136.12232,130.92752 v -6.73089 c 0,-2.24363 -0.008,-4.96624 -1.12182,-5.60908"
       id="path1520-3-6-4-8-2" />
    <path
       style="display:inline;fill:none;stroke:#000000;stroke-width:2;stroke-linecap:round;stroke-linejoin:round;stroke-miterlimit:4;stroke-dasharray:none;stroke-opacity:1"
       d="m 132.38298,130.92752 v -6.73089 c 0,-2.24363 -0.008,-4.96624 -1.12181,-5.60908"
       id="path1520-3-6-4-6-7-7" />
    <path
       style="display:inline;fill:none;stroke:#000000;stroke-width:2;stroke-linecap:round;stroke-linejoin:round;stroke-miterlimit:4;stroke-dasharray:none;stroke-opacity:1"
       d="m 128.64385,130.92752 v -6.73089 c 0,-2.24363 -0.008,-4.96624 -1.12181,-5.60908"
       id="path1520-3-6-4-9-1-2" />
    <path
       style="display:inline;fill:none;stroke:#000000;stroke-width:2;stroke-linecap:round;stroke-linejoin:round;stroke-miterlimit:4;stroke-dasharray:none;stroke-opacity:1"
       d="m 124.90452,130.92752 v -6.73089 c 0,-2.24363 -0.008,-4.96624 -1.12182,-5.60908"
       id="path1520-3-6-4-6-0-7-2" />
  </g>
</svg>
